<svg xmlns="http://www.w3.org/2000/svg" xmlSpace="preserve" width="1.70666in" height="1.70666in" version="1.1" style="shape-rendering:geometricPrecision; text-rendering:geometricPrecision; image-rendering:optimizeQuality; fill-rule:evenodd; clip-rule:evenodd" viewBox="0 0 1707 1707" xmlnsXlink="http://www.w3.org/1999/xlink">
 <defs>
  <style type="text/css">
   
    .fil10 {fill:#360B4B}
    .fil6 {fill:url(#id0)}
    .fil9 {fill:url(#id1)}
    .fil1 {fill:url(#id2)}
    .fil0 {fill:url(#id3)}
    .fil3 {fill:url(#id4)}
    .fil4 {fill:url(#id5)}
    .fil2 {fill:url(#id6)}
    .fil5 {fill:url(#id7)}
    .fil8 {fill:url(#id8)}
    .fil7 {fill:url(#id9)}
   
  </style>
  <linearGradient id="id0" gradientUnits="userSpaceOnUse" x1="375.874" y1="1373.73" x2="520.803" y2="1373.73">
   <stop offset="0" style="stop-opacity: 1; stop-color: rgb(79, 160, 176);" id="id_112"></stop>
   <stop offset="1" style="stop-opacity: 1; stop-color: rgb(23, 197, 232);" id="id_113"></stop>
  </linearGradient>
  <linearGradient id="id1" gradientUnits="userSpaceOnUse" xlinkHref="#id0" x1="472.732" y1="259.299" x2="532.461" y2="259.299">
  </linearGradient>
  <linearGradient id="id2" gradientUnits="userSpaceOnUse" xlinkHref="#id0" x1="175.512" y1="447.11" x2="1564.47" y2="447.11">
  </linearGradient>
  <linearGradient id="id3" gradientUnits="userSpaceOnUse" xlinkHref="#id0" x1="175.512" y1="1163.23" x2="1564.47" y2="1163.23">
  </linearGradient>
  <linearGradient id="id4" gradientUnits="userSpaceOnUse" xlinkHref="#id0" x1="1219.18" y1="952.087" x2="1364.13" y2="952.087">
  </linearGradient>
  <linearGradient id="id5" gradientUnits="userSpaceOnUse" xlinkHref="#id0" x1="1219.18" y1="1373.73" x2="1364.13" y2="1373.73">
  </linearGradient>
  <linearGradient id="id6" gradientUnits="userSpaceOnUse" xlinkHref="#id0" x1="797.531" y1="952.087" x2="942.461" y2="952.087">
  </linearGradient>
  <linearGradient id="id7" gradientUnits="userSpaceOnUse" xlinkHref="#id0" x1="797.531" y1="1373.74" x2="942.461" y2="1373.74">
  </linearGradient>
  <linearGradient id="id8" gradientUnits="userSpaceOnUse" xlinkHref="#id0" x1="840.13" y1="259.299" x2="899.854" y2="259.299">
  </linearGradient>
  <linearGradient id="id9" gradientUnits="userSpaceOnUse" xlinkHref="#id0" x1="1207.53" y1="259.299" x2="1267.25" y2="259.299">
  </linearGradient>
 </defs>
 <g id="Layer_x0020_1">
  <metadata id="CorelCorpID_0Corel-Layer"></metadata>
  <path class="fil0" d="M338 1225l221 0c21,0 38,17 38,38l0 221c0,22 -17,39 -38,39l-221 0c-21,0 -39,-17 -39,-39l0 -221c0,-21 18,-38 39,-38zm421 0l222 0c21,0 38,17 38,38l0 221c0,22 -17,39 -38,39l-222 0c-21,0 -38,-17 -38,-39l0 -221c0,-21 17,-38 38,-38zm384 259l0 -221c0,-21 17,-38 38,-38l221 0c21,0 39,17 39,38l0 221c-1,22 -18,39 -39,39l-221 0c-21,0 -38,-17 -38,-39zm-859 163l1172 0c60,0 108,-49 108,-109l0 -858 -1388 0 0 858c0,60 48,109 108,109zm475 -546c-21,0 -38,-17 -38,-38l0 -222c0,-21 17,-38 38,-38l222 0c21,0 38,17 38,38l0 222c0,21 -17,38 -38,38l-222 0zm422 0c-21,0 -38,-17 -38,-38l0 -222c0,-21 17,-38 38,-38l221 0c21,0 39,17 39,38l0 222c-1,21 -18,38 -39,38l-221 0z" id="id_101"></path>
  <path class="fil1" d="M1166 474l0 0zm-2 -2l0 0zm-2 -2l0 0zm-1 -1l0 0zm-2 -2l0 0zm-2 -2l0 0zm-2 -2l0 0zm-1 -2l0 0zm-2 -2l0 0zm-1 -2l0 0zm-2 -2l0 0zm-1 -2l0 0zm-1 -3l0 0zm-2 -2l0 0zm-1 -2l0 0zm-1 -2l0 0zm-167 -49l0 0zm0 3l0 0zm0 3l0 0zm0 2l0 0zm0 3l0 0zm-1 3l0 0zm0 2l0 0zm0 3l0 0zm-1 3l0 0zm0 2l0 0zm-1 3l0 0zm-1 2l0 0zm-206 -5l0 0zm0 -2l0 0zm-1 -3l0 0zm0 -3l0 0zm0 -2l0 0zm-1 -3l0 0zm0 -3l0 0zm0 -2l0 0zm0 -3l0 0zm0 -3l0 0zm-155 0l0 0zm0 3l0 0zm0 3l0 0zm0 2l0 0zm-1 3l0 0zm0 3l0 0zm0 2l0 0zm-1 3l0 0zm0 3l0 0zm-1 2l0 0zm-1 3l0 0zm0 2l0 0zm-1 3l0 0zm-1 2l0 0zm-1 3l0 0zm-2 5l0 0zm-1 2l0 0zm-1 2l0 0zm-314 -150l0 0zm-108 313l1388 0 0 -205c0,-60 -48,-108 -108,-108l-112 0 0 104c0,59 -48,107 -107,107 -27,0 -52,-11 -71,-28l-2 -2 -2 -2 -1 -1 -2 -2 -2 -2 -2 -2 -1 -2 -2 -2 -1 -2 -2 -2 -1 -2 -1 -3 -2 -2 -1 -2 -1 -2 -1 -3c-7,-14 -11,-29 -11,-46l0 -104 -155 0 0 104 0 3 0 3 0 2 0 3 -1 3 0 2 0 3 -1 3 0 2 -1 3 -1 2c-12,45 -53,78 -102,78 -49,0 -91,-34 -103,-80l-1 -3 0 -2 -1 -3 0 -3 0 -2 -1 -3 0 -3 0 -2 0 -3 0 -3 0 -104 -155 0 0 104 0 3 0 3 0 2 -1 3 0 3 0 2 -1 3 0 3 -1 2 -1 3 0 2 -1 3 -1 2 -1 3c0,1 -1,3 -2,5l-1 2 -1 2c-17,36 -53,61 -95,61 -59,0 -107,-48 -107,-107l0 -104 -112 0c-60,0 -108,48 -108,108l0 205z" id="id_102"></path>
  <polygon class="fil2" points="798,1025 942,1025 942,880 798,880 " id="id_103"></polygon>
  <polygon class="fil3" points="1219,880 1219,1025 1364,1025 1364,880 " id="id_104"></polygon>
  <polygon class="fil4" points="1364,1301 1219,1301 1219,1446 1364,1446 " id="id_105"></polygon>
  <polygon class="fil5" points="942,1446 942,1301 798,1301 798,1446 " id="id_106"></polygon>
  <polygon class="fil6" points="521,1446 521,1301 376,1301 376,1446 " id="id_107"></polygon>
  <path class="fil7" d="M1256 419l0 0zm0 -1l0 0zm1 0l0 0zm0 -1l0 0zm1 0l0 0zm1 -1l0 0zm0 -1l0 0zm1 0l0 0zm0 -1l0 0zm1 0l0 0zm-53 -291l0 272c0,17 13,30 29,30 7,0 14,-2 19,-6l0 -1 1 0 0 -1 1 0 0 -1 1 0 0 -1 1 0 0 -1 1 0 0 -1 1 0c3,-5 5,-11 5,-18l0 -142 0 -1 0 -129c0,-16 -13,-30 -30,-30 -16,0 -29,14 -29,30z" id="id_108"></path>
  <path class="fil8" d="M888 419l0 0zm0 0l0 0zm1 -1l0 0zm1 0l0 0zm0 -1l0 0zm1 0l0 0zm1 -1l0 0zm0 -1l0 0zm1 0l0 0zm0 -1l0 0zm0 0l0 0zm1 -1l0 0zm6 -18l0 -142 0 -1 0 -129c0,-16 -14,-30 -30,-30 -16,0 -30,14 -30,30l0 272c0,17 14,30 30,30 6,0 12,-2 17,-5l1 -1 0 0 1 -1 1 0 0 -1 1 0 0 -1 1 0 0 -1 1 0 0 -1 0 0 1 -1 0 0c4,-5 6,-11 6,-18z" id="id_109"></path>
  <path class="fil9" d="M520 419l0 0zm1 0l0 0zm1 -1l0 0zm0 0l0 0zm1 -1l0 0zm0 0l0 0zm1 -1l0 0zm1 -1l0 0zm0 0l0 0zm1 -1l0 0zm0 0l0 0zm1 -1l0 0zm5 -18l0 -142 0 -1 0 -129c0,-16 -13,-30 -29,-30 -17,0 -30,14 -30,30l0 272c0,17 13,30 30,30 6,0 12,-2 17,-5l0 -1 1 0 1 -1 0 0 1 -1 0 0 1 -1 0 0 1 -1 0 0 1 -1 0 0 1 -1 0 0c3,-5 5,-11 5,-18z" id="id_110"></path>
  <path class="fil10" d="M1386 1506l-222 0c-21,0 -38,-17 -38,-38l0 -222c0,-21 17,-38 38,-38l222 0c21,0 38,17 38,38l0 222c0,21 -17,38 -38,38zm53 200l-1172 0c-102,0 -185,-83 -185,-185l0 -896 0 -242c0,-102 83,-185 185,-185l113 0 0 -91c0,-59 47,-107 106,-107 59,0 106,48 106,107l0 91 155 0 0 -91c0,-59 48,-107 106,-107 59,0 107,48 107,107l0 91 154 0 0 -91c0,-59 48,-107 107,-107 58,0 106,48 106,107l0 91 112 0c102,0 185,83 185,185l0 241 0 1 0 1 0 895c0,102 -83,185 -185,185zm-929 -1310c4,-5 6,-11 6,-17l0 -143 0 -1 0 -128c0,-17 -14,-30 -30,-30 -17,0 -30,13 -30,30l0 272c0,16 13,30 30,30 6,0 12,-3 17,-6l1 0 0 0 0 -1 0 0 1 0 0 0 0 -1 0 0 1 0 0 0 1 -1 0 0 0 0 0 0 1 -1 0 0 0 0 0 0 0 -1 0 0 1 0 0 0 0 -1 0 0 1 0 0 -1 0 0zm368 0c3,-5 5,-11 5,-17l0 -143 0 -1 0 -128c0,-17 -13,-30 -30,-30 -16,0 -30,13 -30,30l0 272c0,16 14,30 30,30 7,0 13,-3 18,-6l0 0 0 0 1 -1 0 0 0 0 0 0 1 -1 0 0 0 0 0 0 1 -1 0 0 0 0 0 0 1 -1 0 0 0 0 0 0 1 -1 0 0 0 0 0 0 1 -1 0 0 0 0 0 -1 1 0zm367 0c4,-5 6,-11 6,-17l0 -143 0 -1 0 -128c0,-17 -14,-30 -30,-30 -17,0 -30,13 -30,30l0 272c0,16 13,30 30,30 7,0 13,-3 18,-7l0 0 1 0 0 0 0 -1 0 0 1 0 0 0 0 -1 0 0 1 0 0 0 0 -1 0 0 1 0 0 0 0 -1 0 0 1 0 0 0 0 -1 0 0 1 0 0 -1 0 0zm-978 -122c-59,0 -108,49 -108,109l0 204 1389 0 0 -204c0,-60 -49,-109 -109,-109l-112 0 0 105c0,58 -48,106 -106,106 -28,0 -53,-11 -72,-28l0 0 -2 -1 0 0 -1 -2 0 0 -2 -2 0 0c-1,-1 -1,-1 -2,-2l0 0 -2 -2 0 0 -1 -2 0 0 -2 -2 0 0 -1 -2 0 0 -2 -2 0 0 -1 -2 0 0 -2 -2 0 0 -1 -2 0 0c-1,-1 -1,-2 -1,-2l0 -1 -2 -2 0 0 -1 -2 0 0c0,-1 -1,-2 -1,-2 -7,-14 -11,-30 -11,-46l0 -105 -154 0c0,34 4,103 -4,134l0 0c-13,44 -54,77 -103,77 -49,0 -91,-34 -103,-80 -8,-33 -3,-98 -3,-131l-155 0c0,39 7,113 -10,151l0 0c-17,35 -54,60 -96,60 -59,0 -106,-48 -106,-106l0 -105 -113 0 0 0zm-108 389l0 858c0,60 49,109 108,109l1172 0c60,0 109,-49 109,-109l0 -858 -1389 0zm805 421l-221 0c-21,0 -39,-17 -39,-38l0 -221c0,-21 18,-38 39,-38l221 0c21,0 38,17 38,38l0 221c0,21 -17,38 -38,38zm-183 -76l145 0 0 -145 -145 0 0 145zm605 76l-222 0c-21,0 -38,-17 -38,-38l0 -221c0,-21 17,-38 38,-38l222 0c21,0 38,17 38,38l0 221c0,21 -17,38 -38,38zm-183 -76l144 0 0 -145 -144 0 0 145zm-661 498l-221 0c-21,0 -38,-17 -38,-38l0 -222c0,-21 17,-38 38,-38l221 0c21,0 39,17 39,38l0 222c0,21 -18,38 -39,38zm-183 -76l145 0 0 -145 -145 0 0 145zm605 76l-221 0c-21,0 -39,-17 -39,-38l0 -222c0,-21 18,-38 39,-38l221 0c21,0 38,17 38,38l0 222c0,21 -17,38 -38,38zm-183 -76l145 0 0 -145 -145 0 0 145zm422 0l144 0 0 -145 -144 0 0 145z" id="id_111" style="fill: rgb(3, 16, 18);"></path>
 </g>
</svg>