<svg xmlnsRdf="http://www.w3.org/1999/02/22-rdf-syntax-ns#" xmlns="http://www.w3.org/2000/svg" height="24" width="24" version="1.1" xmlnsCc="http://creativecommons.org/ns#" xmlnsDc="http://purl.org/dc/elements/1.1/">
 <g transform="translate(0 -1028.4)">
  <path d="m3 1035.4v2 1 3 1 5 1c0 1.1 0.8954 2 2 2h14c1.105 0 2-0.9 2-2v-1-5-4-3h-18z" fill="#1ba4bf" id="id_101"></path>
  <path d="m3 1034.4v2 1 3 1 5 1c0 1.1 0.8954 2 2 2h14c1.105 0 2-0.9 2-2v-1-5-4-3h-18z" fill="#ecf0f1" id="id_102"></path>
  <path d="m3 1033.4v2 1 3 1 5 1c0 1.1 0.8954 2 2 2h14c1.105 0 2-0.9 2-2v-1-5-4-3h-18z" fill="#bdc3c7" id="id_103"></path>
  <path d="m3 1032.4v2 1 3 1 5 1c0 1.1 0.8954 2 2 2h14c1.105 0 2-0.9 2-2v-1-5-4-3h-18z" fill="#ecf0f1" id="id_104"></path>
  <path d="m5 1028.4c-1.1046 0-2 0.9-2 2v1 4 2 1 3 1 5 1c0 1.1 0.8954 2 2 2h2v-1h-1.5c-0.8284 0-1.5-0.7-1.5-1.5 0-0.9 0.6716-1.5 1.5-1.5h12.5 1c1.105 0 2-0.9 2-2v-1-5-4-3-1c0-1.1-0.895-2-2-2h-4-10z" fill="#17a1bd" id="id_105"></path>
  <path d="m8 1028.4v18h1 9 1c1.105 0 2-0.9 2-2v-1-5-4-3-1c0-1.1-0.895-2-2-2h-4-6-1z" fill="#54cfe8" id="id_106"></path>
  <path d="m7 1048.4v2 2l2.5-2 2.5 2v-2-2h-5z" fill="#010d0f" id="id_107"></path>
  <rect height="1" width="5" y="1047.4" x="7" fill="#13c9ed" id="id_108"></rect>
 </g>
</svg>