<svg xmlns="http://www.w3.org/2000/svg" xml:space="preserve" width="512px" height="512px" version="1.1" style="shape-rendering:geometricPrecision; text-rendering:geometricPrecision; image-rendering:optimizeQuality; fill-rule:evenodd; clip-rule:evenodd" viewBox="0 0 512 512" xmlns:xlink="http://www.w3.org/1999/xlink">
 <defs>
  <style type="text/css">
   
    .fil0 {fill:url(#id0)}
   
  </style>
  <linearGradient id="id0" gradientUnits="userSpaceOnUse" x1="255.999" y1="468.875" x2="255.999" y2="43.1245">
   <stop offset="0" style="stop-opacity: 1; stop-color: rgb(115, 103, 207);" id="id_102"></stop>
   <stop offset="0.490196" style="stop-opacity: 1; stop-color: rgb(49, 186, 196);" id="id_103"></stop>
   <stop offset="1" style="stop-opacity: 1; stop-color: rgb(198, 225, 230);" id="id_104"></stop>
  </linearGradient>
 </defs>
 <g id="Layer_x0020_1">
  <metadata id="CorelCorpID_0Corel-Layer"></metadata>
  <path class="fil0" d="M70 153l-39 0c-17,0 -31,-14 -31,-31 0,-18 14,-32 31,-32 4,0 8,4 8,8 0,4 -4,7 -8,7 -9,0 -17,8 -17,17 0,9 8,17 17,17l39 0c4,0 7,4 7,8 0,4 -3,6 -7,6zm240 316c-64,0 -116,-53 -116,-117 0,-65 52,-117 116,-117 51,0 95,31 112,79 0,0 0,0 0,1l10 -24c0,-2 2,-4 4,-4l56 -15c2,-1 5,0 7,2 1,2 2,4 1,7l-6 21 16 16c2,1 2,4 2,6 -1,3 -3,5 -5,6l-55 15c-1,0 -2,0 -2,0 -2,0 -3,0 -5,-2l-19 -15 -1 0c1,0 1,1 1,1 1,7 2,14 2,23 0,64 -53,117 -118,117zm0 -81c-19,0 -35,-16 -35,-36 0,-20 16,-36 35,-36 15,0 27,8 33,20l-14 4c-4,-7 -11,-11 -19,-11 -12,0 -21,10 -21,23 0,12 9,21 21,21 12,0 22,-9 23,-20l14 -4c0,1 0,2 0,3 0,20 -16,36 -37,36zm0 41c-42,0 -77,-35 -77,-77 0,-43 35,-77 77,-77 34,0 62,21 73,50l-14 4c-9,-24 -32,-40 -59,-40 -34,0 -62,28 -62,63 0,35 28,63 62,63 35,0 64,-28 64,-63 0,-3 -1,-7 -1,-10l14 -4c0,5 1,9 1,14 0,42 -35,77 -78,77zm-57 40l-194 0c-19,0 -34,-16 -34,-35l0 -16c2,0 4,0 6,0l39 0c12,0 21,-8 21,-20 0,-11 -9,-21 -21,-21l-39 0c-1,0 -3,-1 -3,-3 0,-2 2,-4 3,-4 12,0 21,-9 21,-21 0,-6 -2,-11 -6,-15l24 0c12,0 21,-8 21,-20 0,-11 -9,-21 -21,-21l-39 0c-1,0 -3,-1 -3,-3 0,-2 1,-4 3,-4 12,0 21,-9 21,-21 0,-6 -2,-11 -6,-15l24 0c12,0 21,-8 21,-20 0,-11 -9,-21 -21,-21l-39 0c-1,0 -3,-2 -3,-3 0,-2 2,-4 3,-4 12,0 21,-9 21,-21 0,-6 -2,-11 -5,-14l23 0c12,0 21,-9 21,-20 0,-12 -9,-21 -21,-21l-39 0c-1,0 -3,-2 -3,-4 0,-2 2,-4 3,-4 12,0 21,-9 21,-20 0,-12 -9,-21 -21,-21 -2,0 -4,0 -6,0 0,-18 16,-34 34,-34l279 0c20,0 35,16 35,35l0 159c-19,-10 -40,-16 -63,-16 -72,0 -130,59 -130,131 0,51 30,96 73,117zm-86 -61l-53 0c-4,0 -6,-4 -6,-8 0,-4 2,-7 6,-7l53 0c3,0 6,3 6,7 0,4 -3,8 -6,8zm0 -58l-53 0c-4,0 -6,-3 -6,-7 0,-4 2,-8 6,-8l53 0c3,0 6,4 6,8 0,4 -3,7 -6,7zm0 -58l-53 0c-4,0 -6,-3 -6,-7 0,-4 2,-7 6,-7l53 0c3,0 6,3 6,7 0,4 -3,7 -6,7zm72 -58l-125 0c-4,0 -6,-3 -6,-7 0,-4 2,-7 6,-7l125 0c4,0 7,3 7,7 0,4 -3,7 -7,7zm68 -57l-193 0c-4,0 -6,-4 -6,-8 0,-4 2,-7 6,-7l193 0c4,0 7,3 7,7 0,4 -3,8 -7,8zm0 -58l-193 0c-4,0 -6,-3 -6,-7 0,-4 2,-8 6,-8l193 0c4,0 7,4 7,8 0,4 -3,7 -7,7zm-237 286l-39 0c-17,0 -31,-14 -31,-32 0,-17 14,-31 31,-31 4,0 8,3 8,7 0,4 -4,7 -8,7 -9,0 -17,8 -17,18 0,9 8,17 17,17l39 0c4,0 7,3 7,7 0,4 -3,7 -7,7zm0 -84l-39 0c-17,0 -31,-15 -31,-32 0,-17 14,-31 31,-31 4,0 8,3 8,7 0,4 -4,8 -8,8 -9,0 -17,7 -17,17 0,9 8,17 17,17l39 0c4,0 7,3 7,7 0,4 -3,7 -7,7zm0 -84l-39 0c-17,0 -31,-14 -31,-32 0,-17 14,-31 31,-31 4,0 8,3 8,7 0,4 -4,7 -8,7 -9,0 -17,8 -17,18 0,9 8,17 17,17l39 0c4,0 7,3 7,7 0,4 -3,7 -7,7z" id="id_101"></path>
 </g>
</svg>